<?xml version="1.0" encoding="utf-8"?>
<!-- Generator: Adobe Illustrator 27.1.0, SVG Export Plug-In . SVG Version: 6.00 Build 0)  -->
<svg version="1.1" id="Layer_1" xmlns="http://www.w3.org/2000/svg" xmlns:xlink="http://www.w3.org/1999/xlink" x="0px" y="0px"
	 viewBox="0 0 201 32" style="enable-background:new 0 0 201 32;" xml:space="preserve">
<style type="text/css">
	.st0{fill:#FFFFFF;}
</style>
<g>
	<path class="st0" d="M10.5,10.4C10.5,10.4,10.5,10.3,10.5,10.4c0.8,0.2,1.6,0.3,2.4,0.3c4.2,0,7.9-2.7,9.3-6.5
		c0.1-0.3-0.2-0.6-0.5-0.4c-5.3,2.8-12.1,3-17.6,0.5C4,4,3.7,4.3,3.8,4.6C4.6,6.4,5.8,7.9,7.5,9c0,0,0,0.1,0,0.1
		c-4,3.5-4.5,10.1-1,14.1c0,0,0,0.1,0,0.1c-1.6,1-2,3.5-0.8,5c0,0,0.1,0,0.1,0c4.6-2.4,10.1-3,15.1-1.7c0,0,0,0,0,0
		c0.2,0,0.4-0.1,0.6-0.2c0,0,0,0,0,0c0.7-1.8-0.4-3.9-2.3-4.4c-0.1,0-0.1-0.1,0-0.1c1.9-1.3,1.7-4.4-0.3-5.5c0,0,0-0.1,0-0.1
		c1.6-1,2.8-2.7,3.1-4.7c0-0.1,0-0.1-0.1-0.1c-3.8,1.8-8.6,2.3-12.7,1.3c0,0-0.1-0.1,0-0.1C9.4,12,9.9,11.1,10.5,10.4L10.5,10.4z
		 M19,22.4c0.4,0.2,0.8,0.4,1.1,0.7c0.6,0.6,1,1.4,1.1,2.3c0,0,0,0.1-0.1,0.1C19.9,25,19,23.8,19,22.4C18.9,22.5,19,22.4,19,22.4
		L19,22.4z M5.9,27.2C5.9,27.2,5.8,27.2,5.9,27.2c-0.5-1.4,0-3,1.2-3.8c0,0,0-0.1,0-0.1c-3.5-4-3.2-10.5,0.8-14.1c0,0,0.1,0,0.1,0
		c0.2,0.1,0.4,0.2,0.6,0.3c0,0,0,0.1,0,0.1C5.4,13,4.9,18.5,7.4,22.3l0,0C8.3,24,7.6,26.3,5.9,27.2L5.9,27.2z M18,21
		c-0.2,0.6-0.5,1.1-1,1.5c0,0,0,0-0.1,0c-2.1-0.2-4.3-0.1-6.4,0.4c0,0-0.1,0-0.1,0c-0.2-0.3-0.4-0.6-0.6-0.9c0,0,0-0.1,0-0.1
		c2.3-0.6,4.8-0.8,7.2-0.6c0,0,0.1,0,0.1,0c0.6-1.3,0.2-3-0.8-3.9c0,0,0-0.1,0-0.1c0.1,0,0.3-0.1,0.4-0.1c0,0,0,0,0.1,0
		C17.9,18,18.4,19.7,18,21L18,21z M9.8,13.7c1.2,0.2,2.4,0.3,3.7,0.3c2.4,0,4.8-0.4,7-1.2c0.1,0,0.1,0.1,0.1,0.1
		c-2.9,2.2-7.5,2.7-10.7,0.9C9.7,13.8,9.8,13.7,9.8,13.7L9.8,13.7z M15.2,17.4C15.2,17.4,15.2,17.4,15.2,17.4c1,0.8,1.6,2.1,1.4,3.4
		c0,0,0,0.1-0.1,0.1c-2.3-0.2-4.7,0.1-6.9,0.7c0,0-0.1,0-0.1,0c-1.3-2.3-1.6-5.4-0.7-7.9c0-0.1,0.1-0.1,0.1,0c0,0.1,0.1,0.2,0.1,0.3
		C10.3,16,12.7,17.5,15.2,17.4L15.2,17.4z M7.3,6.2c-0.1,0,0-0.1,0.1-0.1c3.7,1,7.8,0.9,11.4-0.2c0.1,0,0.1,0.1,0.1,0.1
		c-2.5,1.9-5.9,2.5-8.9,1.5C9,7.1,8.1,6.7,7.3,6.2L7.3,6.2z"/>
	<g>
		<g>
			<path class="st0" d="M42.2,21.8c-1.8,1.3-3.8,1.9-6,1.9c-2.3,0-4.1-0.8-5.2-2.4c-0.7-0.9-1-1.9-1.1-2.9l0-0.8
				c-0.1-1.3,0.4-2.7,1.3-4.2c0.9-1.3,1.9-2.4,3.1-3.3l4.1-2.8c1.7,1,3.2,1.4,4.5,1.3l1.5-0.1l0,0.1l-3.6,2.8
				c2.9,0.9,4.4,2.5,4.4,4.9v0.1C45.2,18.6,44.2,20.4,42.2,21.8z M33.8,11.7c-1.1,1-1.6,2.5-1.6,4.3c0,1.6,0.4,2.9,1.3,4
				c0.3-0.2,0.4-0.4,0.4-0.8L33.8,11.7z M37.4,14.7c-0.3,0.1-0.7,0.2-1.1,0.5v1.5c0,1.1-0.2,1.8-0.7,2.2c-0.2,0.2-0.5,0.4-0.8,0.7
				c-0.3,0.3-0.7,0.6-1.1,0.9c1.1,1.2,2.3,2,3.7,2.2V14.7z M36.3,9.5v4.9l4.1-3.3L36.3,9.5z M42,14.8c-0.6-0.5-1.3-0.7-2.2-0.7
				c-0.6,0-1.2,0.1-1.8,0.3v2.5c1,0.5,1.8,0.7,2.5,0.7c0.7,0,1.6-0.3,2.5-0.8C42.9,16,42.6,15.3,42,14.8z M40.5,19.6
				c-0.6,0-1.5,0.2-2.5,0.5v2.6c2,0,3.5-0.9,4.7-2.6C41.9,19.8,41.2,19.6,40.5,19.6z M43.2,17.3c-1.1,0.5-2,0.7-2.7,0.7
				c-0.6,0-1.4-0.2-2.4-0.6v2.1c0.9-0.3,1.7-0.4,2.5-0.4c0.9,0,1.6,0.2,2.3,0.5c0.3-0.7,0.4-1.3,0.4-1.9L43.2,17.3z"/>
			<path class="st0" d="M52.8,23.6c-1.1-0.6-1.6-1.4-1.6-2.7l-3.4,2.7h-0.1c-1.2-1.1-1.7-2.1-1.7-3.2c0-1.5,0.8-3,2.4-4.5l-1.2-3.1
				l0.3,0c0.9,0.1,1.8-0.2,2.5-1l3.5,1.2l0.7-0.5l0,0.1c-0.4,0.6-0.7,1.2-0.8,1.9v6.5c0.1,0.4,0.3,0.7,0.7,0.8l0.4-0.2l0.3,0.2
				L52.8,23.6z M51.3,14.5l-3.6-1.3l1,2.8l2.5,1.2V14.5z M51.3,17.6l-2.6-1.3C48.2,17.2,48,18,48,18.8c0,1.1,0.5,2.2,1.4,3.1
				l1.8-1.6V17.6z"/>
			<path class="st0" d="M59.3,23.6c-0.8-0.7-1.9-1.3-3.5-1.9c0.4-0.5,0.6-1.1,0.6-1.8v-9.8c0-0.5-0.3-1-0.8-1.6
				c0.6,0.1,1.1,0.4,1.6,0.8l0.3,0c0.8-0.7,1.6-1.1,2.5-1.3c-0.8,0.6-1.2,1.3-1.2,2.2v10.4l1.8,1.1l0.6-0.4l0.3,0.3L59.3,23.6z"/>
			<path class="st0" d="M65.3,18.4V21l2.1,0.9l1.6-1l0.3,0.3c-0.2,0.1-0.4,0.3-0.7,0.4c-0.2,0.1-0.5,0.3-0.7,0.5l-2.1,1.5
				c-1.1-0.6-2.2-1-3.4-1.2c0.5-0.5,0.7-1.1,0.7-1.8V14c0.6-0.3,1.1-0.6,1.7-0.9c0.6-0.3,1.1-0.7,1.6-1.1l3.2,3.2
				C67.8,16.5,66.4,17.5,65.3,18.4z M65.3,13.6v4.2l2.3-1.8L65.3,13.6z"/>
			<path class="st0" d="M76.5,15.2L75,13.7l-1,0.7v6.4l1.3,1l0.7-0.5l0.3,0.3l-2.2,1.9c-0.9-0.8-2-1.4-3.2-1.9
				c0.4-0.4,0.7-1,0.7-1.8v-5c0-0.4-0.2-0.8-0.6-1.1l-0.4,0.3l-0.3-0.3l2.1-1.8c0.5,0.3,0.9,0.5,1.1,0.7c0.3,0.3,0.4,0.7,0.5,1.2
				l2.5-1.9l1.6,1.7L76.5,15.2z"/>
			<path class="st0" d="M80.7,23.6c-1.1-0.6-1.6-1.4-1.6-2.5l0-0.4v-6.4l-0.7-0.8l1.8-1.5l1.9,1.6l-0.6,0.7v6.8
				c0.1,0.3,0.3,0.6,0.7,0.8l0.4-0.3l0.2,0.2L80.7,23.6z M80.2,10.9h-0.3l0.6-2.5h1.8L80.2,10.9z"/>
			<path class="st0" d="M90.6,23.6C89.5,23,89,22.2,89,20.9l-3.4,2.7h-0.1c-1.2-1.1-1.7-2.1-1.7-3.2c0-1.5,0.8-3,2.4-4.5L85,12.9
				l0.3,0c0.9,0.1,1.8-0.2,2.5-1l3.5,1.2l0.7-0.5l0,0.1c-0.4,0.6-0.7,1.2-0.8,1.9v6.5c0.1,0.4,0.3,0.7,0.7,0.8l0.4-0.2l0.3,0.2
				L90.6,23.6z M89,14.5l-3.6-1.3l1,2.8l2.5,1.2V14.5z M89,17.6l-2.6-1.3c-0.5,0.9-0.7,1.7-0.7,2.4c0,1.1,0.5,2.2,1.4,3.1l1.8-1.6
				V17.6z"/>
			<path class="st0" d="M101.8,12.9l-2.2,3l2.3,1.4v4.5c-0.6,0.2-1.1,0.4-1.6,0.7c-0.1,0.1-0.3,0.2-0.6,0.4
				c-0.2,0.2-0.5,0.3-0.9,0.6c-0.9-0.4-1.7-0.6-2.5-0.6c-0.8,0-1.6,0.2-2.5,0.6l-0.3-0.2l2.9-4.2l-2.4-1.3V14c1.1-0.5,2.1-1.2,3-2
				c1.4,0.7,2.4,1,3.2,1l0.6-0.1c0.2,0,0.4-0.1,0.6-0.3c0.2-0.2,0.3-0.4,0.3-0.6c0-0.2-0.2-0.5-0.5-0.9l-0.1-0.2
				c0-0.3,0.2-0.4,0.6-0.4c0.5,0,0.7,0.3,0.7,0.9C102.5,11.7,102.3,12.2,101.8,12.9z M98.3,17.6l-2.7,3.5c0.4-0.1,1-0.1,1.6-0.1
				c0.9,0,1.7,0.2,2.7,0.7l0-3.3L98.3,17.6z M99.5,14.4c-0.2,0-0.5,0-0.7,0c-0.8,0-1.6-0.2-2.5-0.5l0,2.8l1.5,0.8l2.4-3.2
				C99.9,14.3,99.7,14.4,99.5,14.4z"/>
		</g>
		<path class="st0" d="M119.4,17.4c-0.7,0.8-1.6,1.5-2.8,2c-0.2,0.1-0.5,0.3-0.9,0.5c-0.3,0.2-0.7,0.4-1.1,0.6
			c-1,0.6-1.5,1.2-1.5,1.7l0,0.1c0,0.4,0.2,0.7,0.6,0.9c0.3,0.2,0.7,0.2,1.1,0.2c0.6,0,1-0.1,1.3-0.4c0.4-0.4,0.7-0.6,0.9-0.6
			c0.1,0,0.2,0,0.3,0.2c0,0,0,0.1,0,0.2c0,0.3-0.3,0.6-0.9,0.8c-0.5,0.2-0.9,0.2-1.2,0.2h-0.3c-1.4,0-2.1-0.4-2.2-1.2v-0.2
			c0-0.4,0.3-1,0.8-1.8c0.6-0.7,0.9-1.2,0.9-1.4v-5.7c0-0.3-0.2-0.7-0.5-1l-0.7,0.5l-0.2-0.3l2.1-1.8c0.9,0.5,1.4,1.3,1.4,2.3
			l2.9-2.3c0.9,0.9,1.3,2,1.3,3.4C120.6,15.4,120.2,16.4,119.4,17.4z M117.8,12.6l-1.5,1.1V19c0.7-0.5,1.2-1.1,1.7-1.8
			c0.5-0.8,0.8-1.6,0.8-2.3C118.8,14,118.5,13.2,117.8,12.6z"/>
		<g>
			<path class="st0" d="M138.6,24.4c-0.2,0-0.5,0.1-0.8,0.1c-0.3,0-0.6,0-0.9,0c-1.3,0-2.5-0.3-3.6-0.8c-1.2-0.6-2.1-1.4-2.7-2.5
				c-0.7-1.2-1-2.5-1-4c0-1.7,0.4-3.3,1.3-4.6c0.9-1.5,2.1-2.5,3.7-3c-2,1.6-3,3.7-3,6c0,1.5,0.5,2.9,1.5,4.2
				c0.2-0.4,0.3-1.1,0.3-1.9v-5.9l4.8-4c1.5,0.9,3.2,1.4,4.8,1.4l-2.1,2.3c-0.5-0.2-1.1-0.4-1.6-0.6c-0.6-0.2-1.1-0.4-1.7-0.6v11.7
				c0.1,0,0.3,0,0.6,0.1c0.3,0,0.5,0.1,0.6,0.1c1,0,2-0.3,3-1c0,0,0.2-0.2,0.5-0.4c0.3-0.2,0.7-0.5,1.2-0.9l0.1,0
				C142.4,22.7,140.7,24.1,138.6,24.4z M137,10.3l-1.1,0.9v4.6c0,1-0.2,1.8-0.7,2.5c-0.3,0.5-0.9,1.2-1.8,1.9c0.9,1,2,1.7,3.5,2.1
				V10.3z"/>
			<path class="st0" d="M147.1,19.2v2.6l2.1,0.9l1.6-1l0.3,0.3c-0.2,0.1-0.4,0.3-0.7,0.4c-0.2,0.1-0.5,0.3-0.7,0.5l-2.1,1.5
				c-1.1-0.6-2.2-1-3.4-1.2c0.5-0.5,0.7-1.1,0.7-1.8v-6.6c0.6-0.3,1.1-0.6,1.7-0.9c0.6-0.3,1.1-0.7,1.6-1.1l3.2,3.2
				C149.5,17.2,148.1,18.3,147.1,19.2z M147,14.4v4.2l2.3-1.8L147,14.4z"/>
			<path class="st0" d="M159.9,24.4c-0.6-0.4-1-0.8-1.2-1.2c-0.2-0.4-0.3-1-0.3-1.8v-5.9l-1.1-1l-1.7,1.3V22l0.7,0.8l-1.8,1.6
				l-1.9-1.6l0.7-0.8v-6.3c0-0.4-0.2-0.8-0.6-1.1l-0.4,0.3l-0.2-0.3l2-1.8c1,0.6,1.6,1.5,1.6,2.6c0.7-0.5,1.3-1,1.8-1.4
				c0.5-0.4,1-0.8,1.3-1.1l1.7,1.6l1.1-0.8l0.2,0.3c-0.2,0.2-0.4,0.5-0.5,0.7c-0.2,0.3-0.4,0.5-0.5,0.8v6.5c0.1,0.3,0.3,0.6,0.7,0.8
				l0.5-0.3l0.2,0.2L159.9,24.4z"/>
			<path class="st0" d="M166,19.2v2.6l2.1,0.9l1.6-1l0.3,0.3c-0.2,0.1-0.4,0.3-0.7,0.4c-0.2,0.1-0.5,0.3-0.7,0.5l-2.1,1.5
				c-1.1-0.6-2.2-1-3.4-1.2c0.5-0.5,0.7-1.1,0.7-1.8v-6.6c0.6-0.3,1.1-0.6,1.7-0.9c0.6-0.3,1.1-0.7,1.6-1.1l3.2,3.2
				C168.5,17.2,167,18.3,166,19.2z M166,14.4v4.2l2.3-1.8L166,14.4z"/>
			<path class="st0" d="M175.3,24.4c-0.9-0.7-2.1-1.3-3.5-1.9c0.4-0.4,0.6-1,0.6-1.8v-6.3h-1.3l0.2-1.3h1.1v-2.5
				c0.9-0.4,1.7-1,2.7-1.8l2.4,0.6l-0.5,1.7l-2.1-0.4v2.5h1.8l-0.2,1.3h-1.7v7l1.8,1.1l0.8-0.7l0.3,0.3L175.3,24.4z"/>
			<path class="st0" d="M185.4,24.4c-1.1-0.6-1.6-1.4-1.6-2.7l-3.4,2.7h-0.1c-1.2-1.1-1.7-2.1-1.7-3.2c0-1.5,0.8-3,2.4-4.5l-1.2-3.1
				l0.3,0c0.9,0.1,1.8-0.2,2.5-1l3.5,1.2l0.7-0.5l0,0.1c-0.4,0.6-0.7,1.2-0.8,1.9v6.5c0.1,0.4,0.3,0.7,0.7,0.8l0.4-0.2l0.3,0.2
				L185.4,24.4z M183.8,15.3l-3.6-1.3l1,2.8l2.5,1.2V15.3z M183.8,18.4l-2.6-1.3c-0.5,0.9-0.7,1.7-0.7,2.4c0,1.1,0.5,2.2,1.4,3.1
				l1.8-1.6V18.4z"/>
			<path class="st0" d="M196.6,13.7l-2.2,3l2.3,1.4v4.5c-0.6,0.2-1.1,0.4-1.6,0.7c-0.1,0.1-0.3,0.2-0.6,0.4
				c-0.2,0.2-0.5,0.3-0.9,0.6c-0.9-0.4-1.7-0.6-2.5-0.6c-0.8,0-1.6,0.2-2.5,0.6l-0.3-0.2l2.9-4.2l-2.4-1.3v-3.8c1.1-0.5,2.1-1.2,3-2
				c1.4,0.7,2.4,1,3.2,1l0.6-0.1c0.2,0,0.4-0.1,0.6-0.3c0.2-0.2,0.3-0.4,0.3-0.6c0-0.2-0.2-0.5-0.5-0.9l-0.1-0.2
				c0-0.3,0.2-0.4,0.6-0.4c0.5,0,0.7,0.3,0.7,0.9C197.3,12.5,197,13,196.6,13.7z M193,18.4l-2.7,3.5c0.4-0.1,1-0.1,1.6-0.1
				c0.9,0,1.7,0.2,2.7,0.7l0-3.3L193,18.4z M194.2,15.2c-0.2,0-0.5,0-0.7,0c-0.8,0-1.6-0.2-2.5-0.5l0,2.8l1.5,0.8l2.4-3.2
				C194.7,15.1,194.5,15.1,194.2,15.2z"/>
		</g>
	</g>
</g>
</svg>
