<?xml version="1.0" encoding="UTF-8"?>
<svg id="Layer_1" data-name="Layer 1" xmlns="http://www.w3.org/2000/svg" viewBox="0 0 24 32">
  <defs>
    <style>
      .cls-1 {
        fill: #fff;
      }
    </style>
  </defs>
  <path class="cls-1" d="m8.72,8.72s.06-.04.09-.03c.98.24,2.01.37,3.07.37,5.49.01,10.29-3.49,12.1-8.47.14-.37-.26-.72-.61-.54C16.45,3.67,7.75,3.92.62.66.26.49-.12.86.04,1.23c.98,2.31,2.66,4.31,4.75,5.7.05.03.05.1,0,.14C-.44,11.6-1.08,20.1,3.45,25.37c.04.04.03.1-.02.13-2.13,1.33-2.65,4.54-1.02,6.47.03.03.07.04.11.02,5.91-3.13,13.11-3.93,19.58-2.19.01,0,.03,0,.04,0,.26-.06.51-.13.77-.2.03,0,.05-.03.06-.05.85-2.31-.56-5.04-2.93-5.71-.07-.02-.09-.11-.03-.15,2.49-1.73,2.21-5.75-.45-7.13-.06-.03-.06-.11,0-.15,2.07-1.33,3.57-3.55,3.99-6.02.01-.07-.06-.12-.12-.09-4.9,2.29-11.08,2.96-16.48,1.73-.05-.01-.08-.07-.06-.12.47-1.14,1.1-2.2,1.85-3.16Zm11.03,15.62c.51.21.98.51,1.37.89.8.76,1.31,1.83,1.38,2.94,0,.06-.06.11-.12.08-1.54-.62-2.65-2.14-2.75-3.83,0-.06.06-.11.12-.09ZM2.71,30.53s-.11,0-.12-.05c-.55-1.76.14-3.8,1.64-4.87.04-.03.05-.09.02-.13C-.31,20.33.16,11.91,5.24,7.29c.03-.03.07-.03.1-.01.27.16.55.31.84.45.05.03.06.1.02.14-4.11,4.21-4.73,11.38-1.45,16.23l.02.05c1.15,2.25.14,5.25-2.07,6.39Zm15.66-8.02c-.25.76-.71,1.45-1.32,1.98-.02.02-.04.02-.07.02-2.76-.25-5.55-.07-8.24.55-.03,0-.07,0-.09-.03-.29-.38-.57-.77-.82-1.18-.03-.05,0-.12.05-.13,3.01-.8,6.18-1.05,9.3-.74.04,0,.07-.02.09-.05.8-1.7.29-3.91-1.07-5.1-.06-.05-.03-.14.04-.15.18-.03.35-.07.52-.11.02,0,.05,0,.07.01,1.45,1.05,2.15,3.17,1.53,4.93ZM7.85,13.04c1.53.28,3.12.43,4.73.43,3.17,0,6.21-.57,9.03-1.6.09-.03.16.09.08.15-3.76,2.91-9.65,3.44-13.9,1.19-.09-.05-.04-.18.06-.16Zm6.93,4.77s.04,0,.05.02c1.3.96,2.04,2.75,1.7,4.41,0,.04-.05.07-.09.07-3-.21-6.02.09-8.9.9-.04.01-.08,0-.1-.04-1.65-2.98-2.03-6.99-.94-10.29.02-.07.13-.08.16-.01.06.12.13.24.19.36,1.56,2.83,4.69,4.65,7.92,4.59ZM4.62,3.28c-.08-.06-.02-.18.07-.16,4.8,1.32,10.05,1.22,14.79-.29.09-.03.16.09.08.15-3.22,2.42-7.67,3.19-11.54,1.94-1.21-.38-2.36-.94-3.39-1.65Z"/>
</svg>